<svg width="24" height="24" viewBox="0 0 24 24" fill="none" xmlns="http://www.w3.org/2000/svg">
<g id="Frame">
<path id="Vector" d="M7.848 8.25L9.384 9.137M7.848 8.25C7.65245 8.59394 7.39081 8.8958 7.07812 9.1382C6.76544 9.38061 6.4079 9.55877 6.02608 9.66243C5.64426 9.76609 5.24571 9.79321 4.85337 9.74221C4.46103 9.69121 4.08265 9.56312 3.74002 9.36529C3.39739 9.16747 3.09727 8.90382 2.85694 8.58954C2.61662 8.27526 2.44083 7.91654 2.3397 7.53404C2.23858 7.15154 2.21411 6.75282 2.26771 6.36083C2.3213 5.96883 2.45191 5.59131 2.652 5.25C3.05265 4.56658 3.70736 4.06938 4.47325 3.86689C5.23913 3.6644 6.05402 3.77307 6.74008 4.16918C7.42615 4.56529 7.92768 5.21668 8.13525 5.98121C8.34281 6.74573 8.23955 7.56133 7.848 8.25ZM9.384 9.137C9.70799 9.32387 9.97805 9.59149 10.1678 9.91378C10.3576 10.2361 10.4607 10.602 10.467 10.976C10.472 11.327 10.521 11.671 10.607 12M9.384 9.137L11.461 10.336M10.607 12C10.521 12.33 10.472 12.673 10.467 13.025C10.4605 13.3988 10.3574 13.7646 10.1676 14.0867C9.97781 14.4088 9.70785 14.6762 9.384 14.863M10.607 12C10.7671 11.3898 11.0585 10.8218 11.461 10.336M11.461 10.336C12.0005 9.6838 12.7195 9.20431 13.529 8.957L18.854 7.329C19.6602 7.0823 20.5195 7.06705 21.334 7.285L22.137 7.5L14.343 12M7.848 15.75L9.384 14.863M7.848 15.75C8.04809 16.0913 8.1787 16.4688 8.2323 16.8608C8.28589 17.2528 8.26142 17.6515 8.1603 18.034C8.05917 18.4165 7.88339 18.7753 7.64306 19.0895C7.40273 19.4038 7.10262 19.6675 6.75998 19.8653C6.41735 20.0631 6.03897 20.1912 5.64664 20.2422C5.2543 20.2932 4.85574 20.2661 4.47392 20.1624C4.09211 20.0588 3.73456 19.8806 3.42188 19.6382C3.1092 19.3958 2.84755 19.0939 2.652 18.75C2.26045 18.0613 2.15719 17.2457 2.36476 16.4812C2.57232 15.7167 3.07386 15.0653 3.75992 14.6692C4.44598 14.2731 5.26087 14.1644 6.02676 14.3669C6.79264 14.5694 7.44735 15.0666 7.848 15.75ZM9.384 14.863L11.461 13.664M11.461 13.664C12.0005 14.3162 12.7196 14.7956 13.529 15.043L18.855 16.672C19.6613 16.9184 20.5206 16.9333 21.335 16.715L22.137 16.5L14.343 12M11.461 13.664L14.343 12" stroke="#556987" stroke-width="1.5" stroke-linecap="round" stroke-linejoin="round"/>
</g>
</svg>
