<svg width="24" height="24" viewBox="0 0 24 24" fill="none" xmlns="http://www.w3.org/2000/svg">
<g id="Frame">
<path id="Vector" fill-rule="evenodd" clip-rule="evenodd" d="M1 6.875C1 5.839 1.84 5 2.875 5L20.125 5C21.16 5 22 5.84 22 6.875V9.901C22.0001 10.0327 21.9655 10.1622 21.8996 10.2763C21.8338 10.3904 21.7391 10.4851 21.625 10.551C21.2825 10.7482 20.998 11.0322 20.8002 11.3744C20.6024 11.7165 20.4982 12.1048 20.4982 12.5C20.4982 12.8952 20.6024 13.2835 20.8002 13.6256C20.998 13.9678 21.2825 14.2518 21.625 14.449C21.7391 14.5149 21.8338 14.6096 21.8996 14.7237C21.9655 14.8378 22.0001 14.9673 22 15.099V18.125C22 19.16 21.16 20 20.125 20H2.875C2.37772 20 1.90081 19.8025 1.54918 19.4508C1.19754 19.0992 1 18.6223 1 18.125L1 15.099C0.999815 14.9674 1.03428 14.838 1.09993 14.7239C1.16558 14.6098 1.2601 14.515 1.374 14.449C1.71651 14.2518 2.00099 13.9678 2.19881 13.6256C2.39662 13.2835 2.50077 12.8952 2.50077 12.5C2.50077 12.1048 2.39662 11.7165 2.19881 11.3744C2.00099 11.0322 1.71651 10.7482 1.374 10.551C1.2601 10.485 1.16558 10.3902 1.09993 10.2761C1.03428 10.162 0.999815 10.0326 1 9.901L1 6.875ZM16 5.75C16.1989 5.75 16.3897 5.82902 16.5303 5.96967C16.671 6.11032 16.75 6.30109 16.75 6.5V7.25C16.75 7.44891 16.671 7.63968 16.5303 7.78033C16.3897 7.92098 16.1989 8 16 8C15.8011 8 15.6103 7.92098 15.4697 7.78033C15.329 7.63968 15.25 7.44891 15.25 7.25V6.5C15.25 6.30109 15.329 6.11032 15.4697 5.96967C15.6103 5.82902 15.8011 5.75 16 5.75ZM16.75 10.25C16.75 10.0511 16.671 9.86032 16.5303 9.71967C16.3897 9.57902 16.1989 9.5 16 9.5C15.8011 9.5 15.6103 9.57902 15.4697 9.71967C15.329 9.86032 15.25 10.0511 15.25 10.25V11C15.25 11.1989 15.329 11.3897 15.4697 11.5303C15.6103 11.671 15.8011 11.75 16 11.75C16.1989 11.75 16.3897 11.671 16.5303 11.5303C16.671 11.3897 16.75 11.1989 16.75 11V10.25ZM16 13.25C16.1989 13.25 16.3897 13.329 16.5303 13.4697C16.671 13.6103 16.75 13.8011 16.75 14V14.75C16.75 14.9489 16.671 15.1397 16.5303 15.2803C16.3897 15.421 16.1989 15.5 16 15.5C15.8011 15.5 15.6103 15.421 15.4697 15.2803C15.329 15.1397 15.25 14.9489 15.25 14.75V14C15.25 13.8011 15.329 13.6103 15.4697 13.4697C15.6103 13.329 15.8011 13.25 16 13.25ZM16.75 17.75C16.75 17.5511 16.671 17.3603 16.5303 17.2197C16.3897 17.079 16.1989 17 16 17C15.8011 17 15.6103 17.079 15.4697 17.2197C15.329 17.3603 15.25 17.5511 15.25 17.75V18.5C15.25 18.6989 15.329 18.8897 15.4697 19.0303C15.6103 19.171 15.8011 19.25 16 19.25C16.1989 19.25 16.3897 19.171 16.5303 19.0303C16.671 18.8897 16.75 18.6989 16.75 18.5V17.75ZM5.5 12.5C5.5 12.3011 5.57902 12.1103 5.71967 11.9697C5.86032 11.829 6.05109 11.75 6.25 11.75H11.5C11.6989 11.75 11.8897 11.829 12.0303 11.9697C12.171 12.1103 12.25 12.3011 12.25 12.5C12.25 12.6989 12.171 12.8897 12.0303 13.0303C11.8897 13.171 11.6989 13.25 11.5 13.25L6.25 13.25C6.05109 13.25 5.86032 13.171 5.71967 13.0303C5.57902 12.8897 5.5 12.6989 5.5 12.5ZM6.25 14.75C6.05109 14.75 5.86032 14.829 5.71967 14.9697C5.57902 15.1103 5.5 15.3011 5.5 15.5C5.5 15.6989 5.57902 15.8897 5.71967 16.0303C5.86032 16.171 6.05109 16.25 6.25 16.25H9.25C9.44891 16.25 9.63968 16.171 9.78033 16.0303C9.92098 15.8897 10 15.6989 10 15.5C10 15.3011 9.92098 15.1103 9.78033 14.9697C9.63968 14.829 9.44891 14.75 9.25 14.75L6.25 14.75Z" fill="#E14658"/>
</g>
</svg>
